# xmcd
#
# Track frame offsets: 
#        150
#        12533
#        24583
#        36580
#        49965
#        61987
#        73447
#        83520
#        93343
#        103133
#        118418
#        130175
#        148005
#        160623
#        172288
#        185815
#        199285
#        212748
#        224213
#        235685
#        254015
#        268385
#        280658
#        293755
#        306505
#        318265
#        335083
#
# Disc length: 4683 seconds
#
# Revision: 2
# Processed by: cddbd v1.5.2PL0 Copyright (c) Steve Scherf et al.
# Submitted via: ExactAudioCopyFreeDBPlugin 1.0
#
DISCID=c412491b
DTITLE=美樹克彦 - 美樹克彦 ゴールデン ★ ベスト 2
DYEAR=2004
DGENRE=Pop
TTITLE0=目方誠 - トランジスターシスター
TTITLE1=目方誠 - あの娘のツイスト
TTITLE2=目方誠 - アダムとリンゴ
TTITLE3=目方誠 - マッシュポテト
TTITLE4=目方誠 - 可愛いセニョリータ
TTITLE5=目方誠 - うわさのあの娘
TTITLE6=目方誠 - 悲しき雨音
TTITLE7=目方誠 - 恋のハリキリボーイ
TTITLE8=目方誠 - 愛の急行列車
TTITLE9=愛の峠
TTITLE10=わが青春の第一ページ
TTITLE11=俺って奴は
TTITLE12=泣くな鉄腕
TTITLE13=青春決死隊
TTITLE14=恋の挑戦状
TTITLE15=片思いのひとしずく
TTITLE16=土曜の夜はこわい
TTITLE17=女が男を棄てる時
TTITLE18=泣くまで待つよ
TTITLE19=赤い外車の女
TTITLE20=熱愛
TTITLE21=ジングルベル
TTITLE22=サンタクロースが町に来る
TTITLE23=紅三四郎
TTITLE24=男の紅野
TTITLE25=大巨獣ガッパ
TTITLE26=美樹克彦 山田太郎 - 好きさブラックデビル (おれたち昔アイドル族)
EXTD=Powerd by gracenote music web API
EXTT0=
EXTT1=
EXTT2=
EXTT3=
EXTT4=
EXTT5=
EXTT6=
EXTT7=
EXTT8=
EXTT9=
EXTT10=
EXTT11=
EXTT12=
EXTT13=
EXTT14=
EXTT15=
EXTT16=
EXTT17=
EXTT18=
EXTT19=
EXTT20=
EXTT21=
EXTT22=
EXTT23=
EXTT24=
EXTT25=
EXTT26=
PLAYORDER=
